<svg width="60" height="60" viewBox="0 0 60 60" fill="none" xmlns="http://www.w3.org/2000/svg">
<path d="M56.6139 0.0585938L51.6229 54.1188L29.999 59.9412L8.37473 54.1188L3.38477 0.0585938H56.6139ZM46.5568 11.0509H29.9795H13.1086L13.9155 17.5792H29.9795H30.8819L29.9795 17.9548L14.5026 24.4008L15.0159 30.782L29.9795 30.8305L37.9996 30.8559L37.4862 39.3645L29.9794 41.4779V41.4712L29.9179 41.4884L22.6682 39.6582L22.2283 34.3766H22.2043H15.4798H15.4561L16.3363 44.5727L29.9796 48.6074V48.6001L30.0043 48.6074L43.5745 44.6462L45.3347 24.4008H29.9796H29.9418L29.9796 24.3844L45.8972 17.5792L46.5568 11.0509Z" fill="white"/>
</svg>
