<svg width="80" height="80" viewBox="0 0 80 80" fill="none" xmlns="http://www.w3.org/2000/svg">
<g clip-path="url(#clip0_46_58)">
<mask id="mask0_46_58" style="mask-type:luminance" maskUnits="userSpaceOnUse" x="0" y="0" width="80" height="80">
<path d="M0 0H80V80H0V0Z" fill="white"/>
</mask>
<g mask="url(#mask0_46_58)">
<path fill-rule="evenodd" clip-rule="evenodd" d="M22.6257 29.5984C19.2823 27.3484 17.084 23.5292 17.084 19.1972C17.084 12.5859 22.204 7.1705 28.6952 6.70008V6.66675H50.9173V6.67633C57.6056 6.93883 62.9473 12.4442 62.9473 19.1972C62.9473 23.5292 60.7486 27.348 57.4061 29.5984C60.7486 31.8484 62.9473 35.6676 62.9473 40.0001C62.9473 46.9205 57.3373 52.5305 50.4173 52.5305C47.3652 52.5348 44.4172 51.4209 42.1306 49.3992V52.9309C42.1398 53.0542 42.1444 53.1788 42.1444 53.3047V65.0509C42.1444 69.6242 38.4356 73.3334 33.8619 73.3334H29.6144C22.694 73.3334 17.084 67.7234 17.084 60.803C17.084 56.4709 19.2827 52.6522 22.6257 50.4017C19.2823 48.1513 17.084 44.3326 17.084 40.0001C17.084 35.668 19.2827 31.8488 22.6257 29.5984ZM22.1157 19.1972C22.1157 15.0555 25.4727 11.6984 29.6144 11.6984H37.1131V26.6959H29.6144C25.4727 26.6959 22.1157 23.3384 22.1157 19.1972ZM50.4173 26.6959H42.9186V11.6984H50.4173C54.5586 11.6984 57.9161 15.0555 57.9161 19.1972C57.9161 23.3384 54.5586 26.6959 50.4173 26.6959ZM29.6144 47.4988C25.4727 47.4988 22.1157 44.1413 22.1157 40.0001C22.1157 35.8588 25.4727 32.5013 29.6144 32.5013H37.1131V47.4988H29.6144ZM29.6144 68.3022C25.4727 68.3022 22.1157 64.9442 22.1157 60.803C22.1157 56.6617 25.4727 53.3047 29.6144 53.3047H37.1131V65.0509C37.1129 65.9131 36.7703 66.74 36.1606 67.3496C35.551 67.9593 34.7241 68.3019 33.8619 68.3022H29.6144ZM50.4173 47.4988C54.5586 47.4988 57.9161 44.1413 57.9161 40.0001C57.9161 35.8584 54.5586 32.5013 50.4173 32.5013C46.2757 32.5013 42.9186 35.8588 42.9186 40.0001C42.9186 44.1413 46.2757 47.4988 50.4173 47.4988Z" fill="white"/>
</g>
</g>
<defs>
<clipPath id="clip0_46_58">
<rect width="80" height="80" fill="white"/>
</clipPath>
</defs>
</svg>
