<svg width="60" height="60" viewBox="0 0 60 60" fill="none" xmlns="http://www.w3.org/2000/svg">
<path d="M4.84755 32.6497C3.38415 31.1863 3.38415 28.8137 4.84755 27.3503L27.3503 4.84755C28.8137 3.38415 31.1863 3.38415 32.6497 4.84755L55.1524 27.3503C56.6158 28.8137 56.6158 31.1863 55.1524 32.6497L32.6497 55.1524C31.1863 56.6158 28.8137 56.6158 27.3503 55.1524L4.84755 32.6497Z" fill="white"/>
<path d="M22.7787 9.49023L20.5 11.769L26.3854 17.6545C26.1473 18.1652 26.0144 18.7349 26.0144 19.3356C26.0144 21.0411 27.0859 22.4963 28.5925 23.0646V37.462C27.0859 38.0303 26.0144 39.4855 26.0144 41.191C26.0144 43.3915 27.7982 45.1754 29.9987 45.1754C32.1992 45.1754 33.9831 43.3915 33.9831 41.191C33.9831 39.6449 33.1024 38.3043 31.8152 37.6439V23.0843L37.4412 28.7103C37.2147 29.2107 37.0887 29.7663 37.0887 30.3513C37.0887 32.5518 38.8726 34.3356 41.0731 34.3356C43.2736 34.3356 45.0574 32.5518 45.0574 30.3513C45.0574 28.1508 43.2736 26.3669 41.0731 26.3669C40.6454 26.3669 40.2336 26.4342 39.8474 26.5589L33.8052 20.5167C33.9209 20.1436 33.9831 19.7468 33.9831 19.3356C33.9831 17.1351 32.1992 15.3512 29.9987 15.3512C29.5876 15.3512 29.191 15.4135 28.8177 15.5292L22.7787 9.49023Z" fill="#535353"/>
</svg>
