<svg width="941" height="50" viewBox="0 0 941 50" fill="none" xmlns="http://www.w3.org/2000/svg">
<rect width="50" height="50" rx="10" fill="#535353"/>
<path d="M11.7988 10.0293L14.2014 36.9777L24.983 39.9705L35.7944 36.9735L38.1997 10.0293H11.7988ZM33.188 16.4245L33.0375 18.1001L32.9714 18.8431H32.9605H24.9992H24.9877H20.3237L20.6257 22.2275H24.9877H24.9992H31.7799H32.6706L32.5899 23.115L31.8132 31.8165L31.7635 32.3745L24.9992 34.2492V34.2499L24.9841 34.2541L18.2137 32.3745L17.7507 27.1851H19.2798H21.0685L21.3038 29.821L24.9847 30.8151L24.9877 30.8143V30.8139L28.6742 29.8192L29.0575 25.5326H24.9992H24.9877H17.603L16.7907 16.4245L16.7116 15.5379H24.9878H24.9992H33.2671L33.188 16.4245Z" fill="white"/>
<rect x="99" width="50" height="50" rx="10" fill="#535353"/>
<path d="M137.308 10.0293L134.812 37.0594L124 39.9706L113.188 37.0594L110.693 10.0293H137.308ZM132.279 15.5254H123.991H115.555L115.959 18.7896H123.991H124.442L123.991 18.9774L116.252 22.2004L116.509 25.391L123.991 25.4153L128.001 25.428L127.744 29.6822L123.991 30.739V30.7356L123.96 30.7442L120.335 29.8291L120.115 27.1883H120.103H116.741H116.729L117.169 32.2864L123.991 34.3037V34.3001L124.003 34.3037L130.788 32.3231L131.668 22.2004H123.991H123.972L123.991 22.1922L131.95 18.7896L132.279 15.5254Z" fill="white"/>
<rect x="198" width="50" height="50" rx="10" fill="#535353"/>
<g clip-path="url(#clip0_47_91)">
<path fill-rule="evenodd" clip-rule="evenodd" d="M230.992 37.6482C228.375 37.6482 226.682 36.4003 225.857 34.7683L228.152 33.439C228.757 34.426 229.541 35.1506 230.932 35.1506C232.099 35.1506 232.844 34.5667 232.844 33.7612C232.844 32.5492 231.227 32.0757 230.086 31.5867C228.052 30.7212 226.702 29.6337 226.702 27.3372C226.702 25.2237 228.313 23.6128 230.832 23.6128C232.623 23.6128 233.912 24.2367 234.838 25.8672L232.643 27.2771C232.16 26.4116 231.637 26.0693 230.832 26.0693C230.005 26.0693 229.482 26.5931 229.482 27.2771C229.482 28.1231 230.005 28.4653 231.214 28.9888C233.748 30.0748 235.664 30.9279 235.664 33.7209C235.664 36.2589 233.671 37.6482 230.992 37.6482ZM224.5 33.3987C224.5 36.3192 222.701 37.8628 220.204 37.8628C217.948 37.8628 216.596 37 215.932 35.5H215.91H215.899H215.893L218.186 33.8967C218.629 34.6812 219.028 35.2378 219.994 35.2378C220.921 35.2378 221.5 34.7684 221.5 33.3599V23.5H224.5V33.3987ZM208 40H238V10H208V40Z" fill="white"/>
</g>
<rect x="297" width="50" height="50" rx="10" fill="#535353"/>
<path d="M333.895 11.875H310.105C309.426 11.875 308.875 12.4257 308.875 13.105V36.895C308.875 37.5743 309.426 38.125 310.105 38.125H333.895C334.574 38.125 335.125 37.5743 335.125 36.895V13.105C335.125 12.4257 334.574 11.875 333.895 11.875Z" fill="white"/>
<path fill-rule="evenodd" clip-rule="evenodd" d="M324.104 32.2741V35.1504C324.627 35.4083 325.184 35.5899 325.758 35.6894C326.422 35.8119 327.095 35.8722 327.77 35.8694C328.427 35.8726 329.084 35.8063 329.727 35.6716C330.305 35.5548 330.857 35.3324 331.354 35.0154C331.815 34.7174 332.196 34.3096 332.461 33.8285C332.936 32.8322 332.999 31.6888 332.635 30.6466C332.482 30.2569 332.254 29.9011 331.963 29.5994C331.651 29.2787 331.297 29.0021 330.91 28.7772C330.465 28.5165 330.003 28.2865 329.526 28.0891C329.151 27.9335 328.813 27.7822 328.513 27.6354C328.247 27.5078 327.992 27.3576 327.751 27.1863C327.563 27.0541 327.399 26.8897 327.267 26.7007C327.154 26.529 327.095 26.3271 327.098 26.1213C327.095 25.9319 327.148 25.7459 327.25 25.586C327.36 25.4187 327.507 25.2789 327.68 25.1772C327.891 25.0529 328.121 24.9633 328.36 24.9119C328.655 24.8466 328.955 24.8151 329.257 24.8182C329.51 24.8191 329.763 24.8372 330.014 24.8726C330.285 24.9092 330.553 24.9647 330.817 25.0385C331.085 25.1127 331.347 25.2067 331.6 25.3197C331.847 25.4296 332.083 25.562 332.305 25.7154V23.0313C331.842 22.8565 331.363 22.7308 330.875 22.6563C330.285 22.5705 329.69 22.5301 329.094 22.5354C328.442 22.5319 327.793 22.6058 327.159 22.7557C326.586 22.8866 326.041 23.1194 325.55 23.4429C325.094 23.7466 324.717 24.1552 324.452 24.6344C324.171 25.1666 324.032 25.7624 324.048 26.3641C324.027 27.1599 324.289 27.9372 324.788 28.5579C325.399 29.2461 326.17 29.7737 327.033 30.0944C327.427 30.2569 327.794 30.416 328.135 30.5716C328.442 30.7084 328.737 30.8705 329.018 31.0563C329.244 31.2034 329.442 31.3891 329.605 31.6047C329.747 31.8004 329.823 32.0368 329.82 32.2788C329.821 32.4602 329.775 32.6387 329.685 32.7963C329.585 32.9657 329.445 33.1077 329.277 33.2097C329.067 33.3379 328.837 33.4304 328.597 33.4835C328.284 33.5535 327.963 33.5866 327.642 33.5819C327.013 33.5808 326.388 33.4697 325.796 33.2538C325.178 33.0308 324.605 32.699 324.104 32.2741ZM319.272 25.1135H323.022V22.7444H312.566V25.1135H316.3V35.6641H319.272V25.1135Z" fill="#535353"/>
<rect x="495" width="50" height="50" rx="10" fill="#535353"/>
<g clip-path="url(#clip1_47_91)">
<path d="M533.937 13.2325L527.765 10.2634C527.047 9.91656 526.193 10.0628 525.632 10.6244L513.811 21.4103L508.659 17.5038C508.181 17.1372 507.507 17.1672 507.062 17.5722L505.412 19.0759C504.866 19.5691 504.866 20.4287 505.408 20.9219L509.876 24.9991L505.408 29.0763C504.866 29.5694 504.866 30.4291 505.412 30.9222L507.062 32.4259C507.512 32.8309 508.181 32.8609 508.659 32.4944L513.811 28.5831L525.637 39.3738C526.194 39.9353 527.048 40.0816 527.766 39.7347L533.943 36.7609C534.593 36.4488 535.003 35.7944 535.003 35.0716V14.92C535.003 14.2019 534.587 13.5428 533.939 13.2306L533.937 13.2325ZM527.506 31.8119L518.531 25L527.506 18.1881V31.8119Z" fill="white"/>
</g>
<rect x="594" width="50" height="50" rx="10" fill="#535353"/>
<g clip-path="url(#clip2_47_91)">
<path d="M630.255 10H630.305C631.322 10 632.242 10.4213 632.899 11.1L632.9 11.1012C633.579 11.7588 634 12.6775 634 13.6963V13.755V13.7525V36.255V36.305C634 37.3225 633.579 38.2425 632.9 38.8987L632.899 38.9C632.241 39.5788 631.322 40 630.304 40C630.286 40 630.269 40 630.25 40H630.252H607.75C607.734 40 607.714 40 607.695 40C606.677 40 605.757 39.5788 605.101 38.9L605.1 38.8987C604.421 38.2412 604 37.3225 604 36.3037C604 36.2862 604 36.2687 604 36.25V36.2525V13.75C604 13.735 604 13.7175 604 13.7C604 12.6825 604.421 11.7625 605.1 11.1062L605.101 11.105C605.759 10.4263 606.678 10.005 607.696 10.005H607.75H607.747L630.255 10ZM617.061 32.7025V15.6875C617.061 15.6825 617.061 15.6763 617.061 15.6713C617.061 15.1775 616.856 14.7325 616.526 14.4162C616.21 14.09 615.768 13.8875 615.279 13.8875C615.27 13.8875 615.261 13.8875 615.254 13.8875H609.696C609.691 13.8875 609.685 13.8875 609.68 13.8875C609.186 13.8875 608.741 14.0925 608.425 14.4225C608.095 14.74 607.889 15.185 607.889 15.6775V15.6862V32.7012C607.887 32.72 607.887 32.7413 607.887 32.7638C607.887 33.2538 608.094 33.695 608.424 34.0062L608.425 34.0075C608.747 34.3175 609.186 34.5075 609.67 34.5075H609.699H615.256H615.283C615.766 34.5075 616.205 34.3162 616.529 34.0062C616.86 33.6937 617.066 33.2525 617.066 32.7625C617.066 32.74 617.066 32.7188 617.065 32.6975V32.7012L617.061 32.7025ZM630.121 25.2025V15.6888C630.121 15.6838 630.121 15.6775 630.121 15.6725C630.121 15.1788 629.916 14.7337 629.586 14.4175C629.269 14.0862 628.824 13.8813 628.331 13.8813C628.325 13.8813 628.32 13.8813 628.314 13.8813H622.756C622.751 13.8813 622.745 13.8813 622.74 13.8813C622.246 13.8813 621.801 14.0862 621.485 14.4162C621.154 14.7338 620.949 15.1788 620.949 15.6713V15.6888V25.1975C620.948 25.2162 620.948 25.2375 620.948 25.26C620.948 25.75 621.154 26.1912 621.484 26.5025L621.485 26.5038C621.808 26.8138 622.246 27.0037 622.73 27.0037H622.759H628.316H628.342C628.826 27.0037 629.265 26.8125 629.589 26.5025C629.92 26.19 630.126 25.7487 630.126 25.2587C630.126 25.2387 630.126 25.2188 630.125 25.1988V25.2013L630.121 25.2025Z" fill="white"/>
</g>
<rect x="693" width="50" height="50" rx="10" fill="#535353"/>
<path d="M724.739 10H720.376L724.25 16.0096L716.055 10H711.686L715.564 17.8746L707.369 10H703L706.812 20.1643L703 40H707.369L715.562 18.732L711.686 40H716.053L724.25 16.867L720.374 40H724.739L733 14.5913L724.739 10Z" fill="white"/>
<rect x="792" width="50" height="50" rx="10" fill="#535353"/>
<g clip-path="url(#clip3_47_91)">
<path fill-rule="evenodd" clip-rule="evenodd" d="M817 10C825.284 10 832 16.8849 832 25.3794C832 32.1729 827.707 37.9359 821.75 39.9714C820.99 40.1229 820.72 39.6427 820.72 39.2332C820.72 38.7262 820.738 37.0702 820.738 35.0122C820.738 33.5782 820.258 32.6423 819.72 32.1653C823.06 31.7843 826.57 30.4837 826.57 24.5767C826.57 22.8967 825.988 21.5257 825.025 20.4487C825.181 20.0602 825.695 18.4959 824.878 16.3779C824.878 16.3779 823.621 15.9658 820.757 17.9548C819.559 17.6143 818.275 17.443 817 17.437C815.725 17.443 814.443 17.6143 813.246 17.9548C810.379 15.9658 809.119 16.3779 809.119 16.3779C808.305 18.4959 808.819 20.0602 808.974 20.4487C808.015 21.5257 807.429 22.8967 807.429 24.5767C807.429 30.4687 810.931 31.7892 814.263 32.1777C813.834 32.5617 813.445 33.2391 813.31 34.2336C812.455 34.6266 810.283 35.3068 808.945 32.9563C808.945 32.9563 808.152 31.4786 806.646 31.3706C806.646 31.3706 805.183 31.3512 806.543 32.3052C806.543 32.3052 807.526 32.7777 808.208 34.5552C808.208 34.5552 809.089 37.3001 813.262 36.3701C813.27 37.6556 813.283 38.8672 813.283 39.2332C813.283 39.6397 813.007 40.1154 812.258 39.9729C806.297 37.9404 802 32.1744 802 25.3794C802 16.8849 808.717 10 817 10Z" fill="white"/>
</g>
<rect x="891" width="50" height="50" rx="10" fill="#535353"/>
<path d="M903.424 27.3249C902.692 26.5932 902.692 25.4068 903.424 24.6751L914.675 13.4238C915.407 12.6921 916.593 12.6921 917.325 13.4238L928.576 24.6751C929.308 25.4068 929.308 26.5932 928.576 27.3249L917.325 38.5762C916.593 39.3079 915.407 39.3079 914.675 38.5762L903.424 27.3249Z" fill="white"/>
<path d="M912.389 15.7451L911.25 16.8845L914.193 19.8272C914.074 20.0826 914.007 20.3675 914.007 20.6678C914.007 21.5206 914.543 22.2482 915.296 22.5323V29.731C914.543 30.0152 914.007 30.7428 914.007 31.5955C914.007 32.6958 914.899 33.5877 915.999 33.5877C917.1 33.5877 917.992 32.6958 917.992 31.5955C917.992 30.8224 917.551 30.1521 916.908 29.8219V22.5422L919.721 25.3551C919.607 25.6053 919.544 25.8831 919.544 26.1756C919.544 27.2759 920.436 28.1678 921.537 28.1678C922.637 28.1678 923.529 27.2759 923.529 26.1756C923.529 25.0754 922.637 24.1834 921.537 24.1834C921.323 24.1834 921.117 24.2171 920.924 24.2794L917.903 21.2583C917.96 21.0718 917.992 20.8734 917.992 20.6678C917.992 19.5675 917.1 18.6756 915.999 18.6756C915.794 18.6756 915.595 18.7068 915.409 18.7646L912.389 15.7451Z" fill="#535353"/>
<rect x="396" width="50" height="50" rx="10" fill="#535353"/>
<g clip-path="url(#clip4_47_91)">
<mask id="mask0_47_91" style="mask-type:luminance" maskUnits="userSpaceOnUse" x="401" y="5" width="40" height="40">
<path d="M401 5H441V45H401V5Z" fill="white"/>
</mask>
<g mask="url(#mask0_47_91)">
<path fill-rule="evenodd" clip-rule="evenodd" d="M412.312 19.7991C410.64 18.6741 409.541 16.7645 409.541 14.5985C409.541 11.2928 412.101 8.58513 415.347 8.34992V8.33325H426.458V8.33804C429.802 8.46929 432.473 11.222 432.473 14.5985C432.473 16.7645 431.373 18.6739 429.702 19.7991C431.373 20.9241 432.473 22.8337 432.473 24.9999C432.473 28.4601 429.668 31.2651 426.208 31.2651C424.682 31.2673 423.208 30.7103 422.064 29.6995V31.4653C422.069 31.527 422.071 31.5893 422.071 31.6522V37.5253C422.071 39.812 420.217 41.6666 417.93 41.6666H415.806C412.346 41.6666 409.541 38.8616 409.541 35.4014C409.541 33.2353 410.64 31.326 412.312 30.2008C410.64 29.0755 409.541 27.1662 409.541 24.9999C409.541 22.8339 410.64 20.9243 412.312 19.7991ZM412.057 14.5985C412.057 12.5276 413.735 10.8491 415.806 10.8491H419.556V18.3478H415.806C413.735 18.3478 412.057 16.6691 412.057 14.5985ZM426.208 18.3478H422.458V10.8491H426.208C428.278 10.8491 429.957 12.5276 429.957 14.5985C429.957 16.6691 428.278 18.3478 426.208 18.3478ZM415.806 28.7493C413.735 28.7493 412.057 27.0705 412.057 24.9999C412.057 22.9293 413.735 21.2505 415.806 21.2505H419.556V28.7493H415.806ZM415.806 39.151C413.735 39.151 412.057 37.472 412.057 35.4014C412.057 33.3308 413.735 31.6522 415.806 31.6522H419.556V37.5253C419.555 37.9564 419.384 38.3699 419.079 38.6747C418.775 38.9795 418.361 39.1508 417.93 39.151H415.806ZM426.208 28.7493C428.278 28.7493 429.957 27.0705 429.957 24.9999C429.957 22.9291 428.278 21.2505 426.208 21.2505C424.137 21.2505 422.458 22.9293 422.458 24.9999C422.458 27.0705 424.137 28.7493 426.208 28.7493Z" fill="white"/>
</g>
</g>
<defs>
<clipPath id="clip0_47_91">
<rect width="30" height="30" fill="white" transform="translate(208 10)"/>
</clipPath>
<clipPath id="clip1_47_91">
<rect width="30" height="30" fill="white" transform="translate(505 10)"/>
</clipPath>
<clipPath id="clip2_47_91">
<rect width="30" height="30" fill="white" transform="translate(604 10)"/>
</clipPath>
<clipPath id="clip3_47_91">
<rect width="30" height="30" fill="white" transform="translate(802 10)"/>
</clipPath>
<clipPath id="clip4_47_91">
<rect width="40" height="40" fill="white" transform="translate(401 5)"/>
</clipPath>
</defs>
</svg>
