<svg width="530" height="50" viewBox="0 0 530 50" fill="none" xmlns="http://www.w3.org/2000/svg">
<rect width="50" height="50" rx="10" fill="#787878"/>
<path d="M11.7988 10.0293L14.2014 36.9777L24.983 39.9705L35.7944 36.9735L38.1997 10.0293H11.7988ZM33.188 16.4245L33.0375 18.1001L32.9714 18.8431H32.9605H24.9992H24.9877H20.3237L20.6257 22.2275H24.9877H24.9992H31.7799H32.6706L32.5899 23.115L31.8132 31.8165L31.7635 32.3745L24.9992 34.2492V34.2499L24.9841 34.2541L18.2137 32.3745L17.7507 27.1851H19.2798H21.0685L21.3038 29.821L24.9847 30.8151L24.9877 30.8143V30.8139L28.6742 29.8192L29.0575 25.5326H24.9992H24.9877H17.603L16.7907 16.4245L16.7116 15.5379H24.9878H24.9992H33.2671L33.188 16.4245Z" fill="white"/>
<rect x="80" width="50" height="50" rx="10" fill="#787878"/>
<path d="M118.308 10.0293L115.812 37.0594L105 39.9706L94.1883 37.0594L91.6934 10.0293H118.308ZM113.279 15.5254H104.991H96.5553L96.9587 18.7896H104.991H105.442L104.991 18.9774L97.2523 22.2004L97.5089 25.391L104.991 25.4153L109.001 25.428L108.744 29.6822L104.991 30.739V30.7356L104.96 30.7442L101.335 29.8291L101.115 27.1883H101.103H97.7409H97.729L98.1691 32.2864L104.991 34.3037V34.3001L105.003 34.3037L111.788 32.3231L112.668 22.2004H104.991H104.972L104.991 22.1922L112.95 18.7896L113.279 15.5254Z" fill="white"/>
<rect x="160" width="50" height="50" rx="10" fill="#787878"/>
<g clip-path="url(#clip0_71_232)">
<path fill-rule="evenodd" clip-rule="evenodd" d="M192.992 37.6482C190.375 37.6482 188.682 36.4003 187.857 34.7683L190.152 33.439C190.757 34.426 191.541 35.1506 192.932 35.1506C194.099 35.1506 194.844 34.5667 194.844 33.7612C194.844 32.5492 193.227 32.0757 192.086 31.5867C190.052 30.7212 188.702 29.6337 188.702 27.3372C188.702 25.2237 190.313 23.6128 192.832 23.6128C194.623 23.6128 195.912 24.2367 196.838 25.8672L194.643 27.2771C194.16 26.4116 193.637 26.0693 192.832 26.0693C192.005 26.0693 191.482 26.5931 191.482 27.2771C191.482 28.1231 192.005 28.4653 193.214 28.9888C195.748 30.0748 197.664 30.9279 197.664 33.7209C197.664 36.2589 195.671 37.6482 192.992 37.6482ZM186.5 33.3987C186.5 36.3192 184.701 37.8628 182.204 37.8628C179.948 37.8628 178.596 37 177.932 35.5H177.91H177.899H177.893L180.186 33.8967C180.629 34.6812 181.028 35.2378 181.994 35.2378C182.921 35.2378 183.5 34.7684 183.5 33.3599V23.5H186.5V33.3987ZM170 40H200V10H170V40Z" fill="white"/>
</g>
<rect x="240" width="50" height="50" rx="10" fill="#787878"/>
<g clip-path="url(#clip1_71_232)">
<mask id="mask0_71_232" style="mask-type:luminance" maskUnits="userSpaceOnUse" x="245" y="5" width="40" height="40">
<path d="M245 5H285V45H245V5Z" fill="white"/>
</mask>
<g mask="url(#mask0_71_232)">
<path fill-rule="evenodd" clip-rule="evenodd" d="M256.312 19.7993C254.64 18.6743 253.541 16.7647 253.541 14.5987C253.541 11.2931 256.101 8.58537 259.347 8.35016V8.3335H270.458V8.33829C273.802 8.46954 276.473 11.2222 276.473 14.5987C276.473 16.7647 275.373 18.6741 273.702 19.7993C275.373 20.9243 276.473 22.8339 276.473 25.0002C276.473 28.4604 273.668 31.2654 270.208 31.2654C268.682 31.2675 267.208 30.7106 266.064 29.6997V31.4656C266.069 31.5272 266.071 31.5895 266.071 31.6525V37.5256C266.071 39.8122 264.217 41.6668 261.93 41.6668H259.806C256.346 41.6668 253.541 38.8618 253.541 35.4016C253.541 33.2356 254.64 31.3262 256.312 30.201C254.64 29.0758 253.541 27.1664 253.541 25.0002C253.541 22.8341 254.64 20.9245 256.312 19.7993ZM256.057 14.5987C256.057 12.5279 257.735 10.8493 259.806 10.8493H263.556V18.3481H259.806C257.735 18.3481 256.057 16.6693 256.057 14.5987ZM270.208 18.3481H266.458V10.8493H270.208C272.278 10.8493 273.957 12.5279 273.957 14.5987C273.957 16.6693 272.278 18.3481 270.208 18.3481ZM259.806 28.7495C257.735 28.7495 256.057 27.0708 256.057 25.0002C256.057 22.9295 257.735 21.2508 259.806 21.2508H263.556V28.7495H259.806ZM259.806 39.1512C257.735 39.1512 256.057 37.4722 256.057 35.4016C256.057 33.331 257.735 31.6525 259.806 31.6525H263.556V37.5256C263.555 37.9567 263.384 38.3701 263.079 38.6749C262.775 38.9798 262.361 39.1511 261.93 39.1512H259.806ZM270.208 28.7495C272.278 28.7495 273.957 27.0708 273.957 25.0002C273.957 22.9293 272.278 21.2508 270.208 21.2508C268.137 21.2508 266.458 22.9295 266.458 25.0002C266.458 27.0708 268.137 28.7495 270.208 28.7495Z" fill="white"/>
</g>
</g>
<rect x="320" width="50" height="50" rx="10" fill="#787878"/>
<g clip-path="url(#clip2_71_232)">
<path d="M358.937 13.2323L352.765 10.2632C352.047 9.91632 351.193 10.0626 350.632 10.6241L338.811 21.4101L333.659 17.5035C333.181 17.1369 332.507 17.1669 332.062 17.5719L330.412 19.0757C329.866 19.5688 329.866 20.4285 330.408 20.9216L334.876 24.9988L330.408 29.076C329.866 29.5691 329.866 30.4288 330.412 30.9219L332.062 32.4257C332.512 32.8307 333.181 32.8607 333.659 32.4941L338.811 28.5829L350.637 39.3735C351.194 39.9351 352.048 40.0813 352.766 39.7344L358.943 36.7607C359.593 36.4485 360.003 35.7941 360.003 35.0713V14.9198C360.003 14.2016 359.587 13.5426 358.939 13.2304L358.937 13.2323ZM352.506 31.8116L343.531 24.9998L352.506 18.1879V31.8116Z" fill="white"/>
</g>
<rect x="400" width="50" height="50" rx="10" fill="#787878"/>
<g clip-path="url(#clip3_71_232)">
<path fill-rule="evenodd" clip-rule="evenodd" d="M425 10C433.284 10 440 16.8849 440 25.3794C440 32.1729 435.707 37.9359 429.75 39.9714C428.99 40.1229 428.72 39.6427 428.72 39.2332C428.72 38.7262 428.738 37.0702 428.738 35.0122C428.738 33.5782 428.258 32.6423 427.72 32.1653C431.06 31.7843 434.57 30.4837 434.57 24.5767C434.57 22.8967 433.988 21.5257 433.025 20.4487C433.181 20.0602 433.695 18.4959 432.878 16.3779C432.878 16.3779 431.621 15.9658 428.757 17.9548C427.559 17.6143 426.275 17.443 425 17.437C423.725 17.443 422.443 17.6143 421.246 17.9548C418.379 15.9658 417.119 16.3779 417.119 16.3779C416.305 18.4959 416.819 20.0602 416.974 20.4487C416.015 21.5257 415.429 22.8967 415.429 24.5767C415.429 30.4687 418.931 31.7892 422.263 32.1777C421.834 32.5617 421.445 33.2391 421.31 34.2336C420.455 34.6266 418.283 35.3068 416.945 32.9563C416.945 32.9563 416.152 31.4786 414.646 31.3706C414.646 31.3706 413.183 31.3512 414.543 32.3052C414.543 32.3052 415.526 32.7777 416.208 34.5552C416.208 34.5552 417.089 37.3001 421.262 36.3701C421.27 37.6556 421.283 38.8672 421.283 39.2332C421.283 39.6397 421.007 40.1154 420.258 39.9729C414.297 37.9404 410 32.1744 410 25.3794C410 16.8849 416.717 10 425 10Z" fill="white"/>
</g>
<rect x="480" width="50" height="50" rx="10" fill="#787878"/>
<path d="M492.424 27.3249C491.692 26.5932 491.692 25.4068 492.424 24.6751L503.675 13.4238C504.407 12.6921 505.593 12.6921 506.325 13.4238L517.576 24.6751C518.308 25.4068 518.308 26.5932 517.576 27.3249L506.325 38.5762C505.593 39.3079 504.407 39.3079 503.675 38.5762L492.424 27.3249Z" fill="white"/>
<path d="M501.389 15.7451L500.25 16.8845L503.193 19.8272C503.074 20.0826 503.007 20.3675 503.007 20.6678C503.007 21.5206 503.543 22.2482 504.296 22.5323V29.731C503.543 30.0152 503.007 30.7428 503.007 31.5955C503.007 32.6958 503.899 33.5877 504.999 33.5877C506.1 33.5877 506.992 32.6958 506.992 31.5955C506.992 30.8224 506.551 30.1521 505.908 29.8219V22.5422L508.721 25.3551C508.607 25.6053 508.544 25.8831 508.544 26.1756C508.544 27.2759 509.436 28.1678 510.537 28.1678C511.637 28.1678 512.529 27.2759 512.529 26.1756C512.529 25.0754 511.637 24.1834 510.537 24.1834C510.323 24.1834 510.117 24.2171 509.924 24.2794L506.903 21.2583C506.96 21.0718 506.992 20.8734 506.992 20.6678C506.992 19.5675 506.1 18.6756 504.999 18.6756C504.794 18.6756 504.595 18.7068 504.409 18.7646L501.389 15.7451Z" fill="#787878"/>
<defs>
<clipPath id="clip0_71_232">
<rect width="30" height="30" fill="white" transform="translate(170 10)"/>
</clipPath>
<clipPath id="clip1_71_232">
<rect width="40" height="40" fill="white" transform="translate(245 5)"/>
</clipPath>
<clipPath id="clip2_71_232">
<rect width="30" height="30" fill="white" transform="translate(330 10)"/>
</clipPath>
<clipPath id="clip3_71_232">
<rect width="30" height="30" fill="white" transform="translate(410 10)"/>
</clipPath>
</defs>
</svg>
