<svg width="80" height="80" viewBox="0 0 80 80" fill="none" xmlns="http://www.w3.org/2000/svg">
<rect width="80" height="80" rx="10" fill="#535353"/>
<path d="M9.375 30.375C9.375 23.0243 9.375 19.349 10.8055 16.5414C12.0639 14.0717 14.0717 12.0639 16.5414 10.8055C19.349 9.375 23.0243 9.375 30.375 9.375H49.625C56.9757 9.375 60.6511 9.375 63.4585 10.8055C65.9282 12.0639 67.9361 14.0717 69.1944 16.5414C70.625 19.349 70.625 23.0243 70.625 30.375V49.625C70.625 56.9757 70.625 60.6511 69.1944 63.4585C67.9361 65.9282 65.9282 67.9361 63.4585 69.1944C60.6511 70.625 56.9757 70.625 49.625 70.625H30.375C23.0243 70.625 19.349 70.625 16.5414 69.1944C14.0717 67.9361 12.0639 65.9282 10.8055 63.4585C9.375 60.6511 9.375 56.9757 9.375 49.625V30.375Z" fill="#535353"/>
<path d="M56.704 25.4312C53.5888 24.0619 50.2576 23.0666 46.7753 22.5C46.3477 23.2264 45.8481 24.2035 45.5035 24.9808C41.8016 24.4578 38.1338 24.4578 34.5 24.9808C34.1557 24.2035 33.6444 23.2264 33.2131 22.5C29.7268 23.0666 26.3922 24.0655 23.277 25.4385C16.9935 34.3591 15.2902 43.0583 16.1419 51.634C20.3094 54.558 24.3482 56.3341 28.3188 57.4963C29.2992 56.2288 30.1735 54.8813 30.9269 53.461C29.4921 52.9489 28.1182 52.3169 26.8199 51.583C27.1644 51.3435 27.5013 51.0928 27.8268 50.8349C35.7455 54.3146 44.349 54.3146 52.1732 50.8349C52.5024 51.0928 52.8393 51.3435 53.1799 51.583C51.8779 52.3204 50.5 52.9524 49.0654 53.4647C49.8186 54.8813 50.6892 56.2323 51.6734 57.5C55.6478 56.3378 59.6903 54.5615 63.858 51.634C64.8572 41.6927 62.1508 33.0733 56.704 25.4312ZM32.0056 46.3602C29.6284 46.3602 27.6791 44.275 27.6791 41.7362C27.6791 39.1974 29.5868 37.1088 32.0056 37.1088C34.4243 37.1088 36.3736 39.1937 36.332 41.7362C36.3359 44.275 34.4243 46.3602 32.0056 46.3602ZM47.9942 46.3602C45.6171 46.3602 43.6678 44.275 43.6678 41.7362C43.6678 39.1974 45.5755 37.1088 47.9942 37.1088C50.4129 37.1088 52.3624 39.1937 52.3207 41.7362C52.3207 44.275 50.4129 46.3602 47.9942 46.3602Z" fill="white"/>
</svg>
