<svg width="80" height="80" viewBox="0 0 80 80" fill="none" xmlns="http://www.w3.org/2000/svg">
<rect width="80" height="80" rx="10" fill="#535353"/>
<path fill-rule="evenodd" clip-rule="evenodd" d="M22.2924 40C22.2924 30.22 30.2207 22.2917 40.0007 22.2917C49.7807 22.2917 57.709 30.22 57.709 40C57.709 49.78 49.7807 57.7083 40.0007 57.7083C36.5169 57.7083 33.2741 56.7046 30.5381 54.971C30.0289 54.6485 29.405 54.5623 28.8274 54.7346L22.8292 56.5248L25.0876 51.2402C25.3545 50.6156 25.3002 49.9002 24.942 49.3231C23.2625 46.6167 22.2924 43.4248 22.2924 40ZM40.0007 18.125C27.9195 18.125 18.1257 27.9188 18.1257 40C18.1257 43.8294 19.1114 47.434 20.8437 50.5681L17.2516 58.9729C16.9341 59.716 17.0748 60.5756 17.6128 61.1785C18.1507 61.7817 18.9888 62.0192 19.7631 61.7879L29.1369 58.9906C32.3391 60.826 36.05 61.875 40.0007 61.875C52.0819 61.875 61.8757 52.0812 61.8757 40C61.8757 27.9188 52.0819 18.125 40.0007 18.125ZM44.7767 44.5467L42.0388 46.4752C40.7565 45.7448 39.3388 44.7252 37.9167 43.3031C36.4384 41.8248 35.3424 40.2985 34.5342 38.8985L36.2742 37.4217C37.0209 36.7879 37.2252 35.7194 36.7652 34.8547L34.5482 30.6881C34.2497 30.127 33.7114 29.7329 33.0864 29.6178C32.4613 29.5027 31.818 29.6792 31.3391 30.0971L30.6818 30.6707C29.1011 32.0503 28.1663 34.3173 28.9411 36.6127C29.7444 38.9923 31.4586 42.7375 34.9705 46.2494C38.7488 50.0277 42.5867 51.5156 44.8311 52.0935C46.6394 52.559 48.3507 51.935 49.5565 50.9525L50.7888 49.9483C51.3159 49.519 51.6002 48.8592 51.5507 48.181C51.5009 47.5029 51.1234 46.8917 50.5392 46.5435L47.0427 44.4602C46.3365 44.0396 45.449 44.0733 44.7767 44.5467Z" fill="white"/>
</svg>
