<svg width="370" height="50" viewBox="0 0 370 50" fill="none" xmlns="http://www.w3.org/2000/svg">
<rect width="50" height="50" rx="10" fill="#787878"/>
<path d="M11.7988 10.0293L14.2014 36.9777L24.983 39.9705L35.7944 36.9735L38.1997 10.0293H11.7988ZM33.188 16.4245L33.0375 18.1001L32.9714 18.8431H32.9605H24.9992H24.9877H20.3237L20.6257 22.2275H24.9877H24.9992H31.7799H32.6706L32.5899 23.115L31.8132 31.8165L31.7635 32.3745L24.9992 34.2492V34.2499L24.9841 34.2541L18.2137 32.3745L17.7507 27.1851H19.2798H21.0685L21.3038 29.821L24.9847 30.8151L24.9877 30.8143V30.8139L28.6742 29.8192L29.0575 25.5326H24.9992H24.9877H17.603L16.7907 16.4245L16.7116 15.5379H24.9878H24.9992H33.2671L33.188 16.4245Z" fill="white"/>
<rect x="80" width="50" height="50" rx="10" fill="#787878"/>
<g clip-path="url(#clip0_77_235)">
<path fill-rule="evenodd" clip-rule="evenodd" d="M112.992 37.6482C110.375 37.6482 108.682 36.4003 107.857 34.7683L110.152 33.439C110.757 34.426 111.541 35.1506 112.932 35.1506C114.099 35.1506 114.844 34.5667 114.844 33.7612C114.844 32.5492 113.227 32.0757 112.086 31.5867C110.052 30.7212 108.702 29.6337 108.702 27.3372C108.702 25.2237 110.313 23.6128 112.832 23.6128C114.623 23.6128 115.912 24.2367 116.838 25.8672L114.643 27.2771C114.16 26.4116 113.637 26.0693 112.832 26.0693C112.005 26.0693 111.482 26.5931 111.482 27.2771C111.482 28.1231 112.005 28.4653 113.214 28.9888C115.748 30.0748 117.664 30.9279 117.664 33.7209C117.664 36.2589 115.671 37.6482 112.992 37.6482ZM106.5 33.3987C106.5 36.3192 104.701 37.8628 102.204 37.8628C99.948 37.8628 98.5965 37 97.932 35.5H97.9095H97.899H97.893L100.186 33.8967C100.629 34.6812 101.028 35.2378 101.994 35.2378C102.921 35.2378 103.5 34.7684 103.5 33.3599V23.5H106.5V33.3987ZM90 40H120V10H90V40Z" fill="white"/>
</g>
<rect x="160" width="50" height="50" rx="10" fill="#787878"/>
<g clip-path="url(#clip1_77_235)">
<path d="M198.937 13.2323L192.765 10.2632C192.047 9.91632 191.193 10.0626 190.632 10.6241L178.811 21.4101L173.659 17.5035C173.181 17.1369 172.507 17.1669 172.062 17.5719L170.412 19.0757C169.866 19.5688 169.866 20.4285 170.408 20.9216L174.876 24.9988L170.408 29.076C169.866 29.5691 169.866 30.4288 170.412 30.9219L172.062 32.4257C172.512 32.8307 173.181 32.8607 173.659 32.4941L178.811 28.5829L190.637 39.3735C191.194 39.9351 192.048 40.0813 192.766 39.7344L198.943 36.7607C199.593 36.4485 200.003 35.7941 200.003 35.0713V14.9198C200.003 14.2016 199.587 13.5426 198.939 13.2304L198.937 13.2323ZM192.506 31.8116L183.531 24.9998L192.506 18.1879V31.8116Z" fill="white"/>
</g>
<rect x="240" width="50" height="50" rx="10" fill="#787878"/>
<g clip-path="url(#clip2_77_235)">
<path fill-rule="evenodd" clip-rule="evenodd" d="M265 10C273.284 10 280 16.8849 280 25.3794C280 32.1729 275.707 37.9359 269.75 39.9714C268.99 40.1229 268.72 39.6427 268.72 39.2332C268.72 38.7262 268.738 37.0702 268.738 35.0122C268.738 33.5782 268.258 32.6423 267.72 32.1653C271.06 31.7843 274.57 30.4837 274.57 24.5767C274.57 22.8967 273.988 21.5257 273.025 20.4487C273.181 20.0602 273.695 18.4959 272.878 16.3779C272.878 16.3779 271.621 15.9658 268.757 17.9548C267.559 17.6143 266.275 17.443 265 17.437C263.725 17.443 262.443 17.6143 261.246 17.9548C258.379 15.9658 257.119 16.3779 257.119 16.3779C256.305 18.4959 256.819 20.0602 256.974 20.4487C256.015 21.5257 255.429 22.8967 255.429 24.5767C255.429 30.4687 258.931 31.7892 262.263 32.1777C261.834 32.5617 261.445 33.2391 261.31 34.2336C260.455 34.6266 258.283 35.3068 256.945 32.9563C256.945 32.9563 256.152 31.4786 254.646 31.3706C254.646 31.3706 253.183 31.3512 254.543 32.3052C254.543 32.3052 255.526 32.7777 256.208 34.5552C256.208 34.5552 257.089 37.3001 261.262 36.3701C261.27 37.6556 261.283 38.8672 261.283 39.2332C261.283 39.6397 261.007 40.1154 260.258 39.9729C254.297 37.9404 250 32.1744 250 25.3794C250 16.8849 256.717 10 265 10Z" fill="white"/>
</g>
<rect x="320" width="50" height="50" rx="10" fill="#787878"/>
<path d="M332.424 27.3249C331.692 26.5932 331.692 25.4068 332.424 24.6751L343.675 13.4238C344.407 12.6921 345.593 12.6921 346.325 13.4238L357.576 24.6751C358.308 25.4068 358.308 26.5932 357.576 27.3249L346.325 38.5762C345.593 39.3079 344.407 39.3079 343.675 38.5762L332.424 27.3249Z" fill="white"/>
<path d="M341.389 15.7451L340.25 16.8845L343.193 19.8272C343.074 20.0826 343.007 20.3675 343.007 20.6678C343.007 21.5206 343.543 22.2482 344.296 22.5323V29.731C343.543 30.0152 343.007 30.7428 343.007 31.5955C343.007 32.6958 343.899 33.5877 344.999 33.5877C346.1 33.5877 346.992 32.6958 346.992 31.5955C346.992 30.8224 346.551 30.1521 345.908 29.8219V22.5422L348.721 25.3551C348.607 25.6053 348.544 25.8831 348.544 26.1756C348.544 27.2759 349.436 28.1678 350.537 28.1678C351.637 28.1678 352.529 27.2759 352.529 26.1756C352.529 25.0754 351.637 24.1834 350.537 24.1834C350.323 24.1834 350.117 24.2171 349.924 24.2794L346.903 21.2583C346.96 21.0718 346.992 20.8734 346.992 20.6678C346.992 19.5675 346.1 18.6756 344.999 18.6756C344.794 18.6756 344.595 18.7068 344.409 18.7646L341.389 15.7451Z" fill="#787878"/>
<defs>
<clipPath id="clip0_77_235">
<rect width="30" height="30" fill="white" transform="translate(90 10)"/>
</clipPath>
<clipPath id="clip1_77_235">
<rect width="30" height="30" fill="white" transform="translate(170 10)"/>
</clipPath>
<clipPath id="clip2_77_235">
<rect width="30" height="30" fill="white" transform="translate(250 10)"/>
</clipPath>
</defs>
</svg>
