<svg width="450" height="50" viewBox="0 0 450 50" fill="none" xmlns="http://www.w3.org/2000/svg">
<rect width="50" height="50" rx="10" fill="#787878"/>
<path d="M11.7988 10.0293L14.2014 36.9777L24.983 39.9705L35.7944 36.9735L38.1997 10.0293H11.7988ZM33.188 16.4245L33.0375 18.1001L32.9714 18.8431H32.9605H24.9992H24.9877H20.3237L20.6257 22.2275H24.9877H24.9992H31.7799H32.6706L32.5899 23.115L31.8132 31.8165L31.7635 32.3745L24.9992 34.2492V34.2499L24.9841 34.2541L18.2137 32.3745L17.7507 27.1851H19.2798H21.0685L21.3038 29.821L24.9847 30.8151L24.9877 30.8143V30.8139L28.6742 29.8192L29.0575 25.5326H24.9992H24.9877H17.603L16.7907 16.4245L16.7116 15.5379H24.9878H24.9992H33.2671L33.188 16.4245Z" fill="white"/>
<rect x="80" width="50" height="50" rx="10" fill="#787878"/>
<path d="M118.308 10.0293L115.812 37.0594L105 39.9706L94.1883 37.0594L91.6934 10.0293H118.308ZM113.279 15.5254H104.991H96.5553L96.9587 18.7896H104.991H105.442L104.991 18.9774L97.2523 22.2004L97.5089 25.391L104.991 25.4153L109.001 25.428L108.744 29.6822L104.991 30.739V30.7356L104.96 30.7442L101.335 29.8291L101.115 27.1883H101.103H97.7409H97.729L98.1691 32.2864L104.991 34.3037V34.3001L105.003 34.3037L111.788 32.3231L112.668 22.2004H104.991H104.972L104.991 22.1922L112.95 18.7896L113.279 15.5254Z" fill="white"/>
<rect x="240" width="50" height="50" rx="10" fill="#787878"/>
<g clip-path="url(#clip0_73_233)">
<path d="M278.937 13.2323L272.765 10.2632C272.047 9.91632 271.193 10.0626 270.632 10.6241L258.811 21.4101L253.659 17.5035C253.181 17.1369 252.507 17.1669 252.062 17.5719L250.412 19.0757C249.866 19.5688 249.866 20.4285 250.408 20.9216L254.876 24.9988L250.408 29.076C249.866 29.5691 249.866 30.4288 250.412 30.9219L252.062 32.4257C252.512 32.8307 253.181 32.8607 253.659 32.4941L258.811 28.5829L270.637 39.3735C271.194 39.9351 272.048 40.0813 272.766 39.7344L278.943 36.7607C279.593 36.4485 280.003 35.7941 280.003 35.0713V14.9198C280.003 14.2016 279.587 13.5426 278.939 13.2304L278.937 13.2323ZM272.506 31.8116L263.531 24.9998L272.506 18.1879V31.8116Z" fill="white"/>
</g>
<rect x="320" width="50" height="50" rx="10" fill="#787878"/>
<g clip-path="url(#clip1_73_233)">
<path fill-rule="evenodd" clip-rule="evenodd" d="M345 10C353.284 10 360 16.8849 360 25.3794C360 32.1729 355.707 37.9359 349.75 39.9714C348.99 40.1229 348.72 39.6427 348.72 39.2332C348.72 38.7262 348.738 37.0702 348.738 35.0122C348.738 33.5782 348.258 32.6423 347.72 32.1653C351.06 31.7843 354.57 30.4837 354.57 24.5767C354.57 22.8967 353.988 21.5257 353.025 20.4487C353.181 20.0602 353.695 18.4959 352.878 16.3779C352.878 16.3779 351.621 15.9658 348.757 17.9548C347.559 17.6143 346.275 17.443 345 17.437C343.725 17.443 342.443 17.6143 341.246 17.9548C338.379 15.9658 337.119 16.3779 337.119 16.3779C336.305 18.4959 336.819 20.0602 336.974 20.4487C336.015 21.5257 335.429 22.8967 335.429 24.5767C335.429 30.4687 338.931 31.7892 342.263 32.1777C341.834 32.5617 341.445 33.2391 341.31 34.2336C340.455 34.6266 338.283 35.3068 336.945 32.9563C336.945 32.9563 336.152 31.4786 334.646 31.3706C334.646 31.3706 333.183 31.3512 334.543 32.3052C334.543 32.3052 335.526 32.7777 336.208 34.5552C336.208 34.5552 337.089 37.3001 341.262 36.3701C341.27 37.6556 341.283 38.8672 341.283 39.2332C341.283 39.6397 341.007 40.1154 340.258 39.9729C334.297 37.9404 330 32.1744 330 25.3794C330 16.8849 336.717 10 345 10Z" fill="white"/>
</g>
<rect x="400" width="50" height="50" rx="10" fill="#787878"/>
<path d="M412.424 27.3249C411.692 26.5932 411.692 25.4068 412.424 24.6751L423.675 13.4238C424.407 12.6921 425.593 12.6921 426.325 13.4238L437.576 24.6751C438.308 25.4068 438.308 26.5932 437.576 27.3249L426.325 38.5762C425.593 39.3079 424.407 39.3079 423.675 38.5762L412.424 27.3249Z" fill="white"/>
<path d="M421.389 15.7451L420.25 16.8845L423.193 19.8272C423.074 20.0826 423.007 20.3675 423.007 20.6678C423.007 21.5206 423.543 22.2482 424.296 22.5323V29.731C423.543 30.0152 423.007 30.7428 423.007 31.5955C423.007 32.6958 423.899 33.5877 424.999 33.5877C426.1 33.5877 426.992 32.6958 426.992 31.5955C426.992 30.8224 426.551 30.1521 425.908 29.8219V22.5422L428.721 25.3551C428.607 25.6053 428.544 25.8831 428.544 26.1756C428.544 27.2759 429.436 28.1678 430.537 28.1678C431.637 28.1678 432.529 27.2759 432.529 26.1756C432.529 25.0754 431.637 24.1834 430.537 24.1834C430.323 24.1834 430.117 24.2171 429.924 24.2794L426.903 21.2583C426.96 21.0718 426.992 20.8734 426.992 20.6678C426.992 19.5675 426.1 18.6756 424.999 18.6756C424.794 18.6756 424.595 18.7068 424.409 18.7646L421.389 15.7451Z" fill="#787878"/>
<rect x="160" width="50" height="50" rx="10" fill="#787878"/>
<path d="M196.895 11.875H173.105C172.426 11.875 171.875 12.4257 171.875 13.105V36.895C171.875 37.5743 172.426 38.125 173.105 38.125H196.895C197.574 38.125 198.125 37.5743 198.125 36.895V13.105C198.125 12.4257 197.574 11.875 196.895 11.875Z" fill="white"/>
<path fill-rule="evenodd" clip-rule="evenodd" d="M187.104 32.2739V35.1501C187.627 35.4081 188.184 35.5896 188.758 35.6892C189.422 35.8117 190.095 35.872 190.77 35.8692C191.427 35.8723 192.084 35.806 192.727 35.6714C193.305 35.5546 193.857 35.3321 194.354 35.0151C194.815 34.7172 195.196 34.3094 195.461 33.8283C195.936 32.832 195.999 31.6886 195.635 30.6464C195.482 30.2566 195.254 29.9008 194.963 29.5992C194.651 29.2784 194.297 29.0018 193.91 28.777C193.465 28.5162 193.003 28.2863 192.526 28.0889C192.151 27.9333 191.813 27.782 191.513 27.6351C191.247 27.5076 190.992 27.3573 190.751 27.1861C190.563 27.0539 190.399 26.8895 190.267 26.7004C190.154 26.5288 190.095 26.3269 190.098 26.1211C190.095 25.9317 190.148 25.7456 190.25 25.5858C190.36 25.4184 190.507 25.2786 190.68 25.177C190.891 25.0527 191.121 24.9631 191.36 24.9117C191.655 24.8463 191.955 24.8149 192.257 24.8179C192.51 24.8188 192.763 24.837 193.014 24.8723C193.285 24.909 193.553 24.9644 193.817 25.0383C194.085 25.1125 194.347 25.2065 194.6 25.3195C194.847 25.4293 195.083 25.5618 195.305 25.7151V23.0311C194.842 22.8562 194.363 22.7306 193.875 22.6561C193.285 22.5702 192.69 22.5298 192.094 22.5351C191.442 22.5316 190.793 22.6056 190.159 22.7554C189.586 22.8864 189.041 23.1191 188.55 23.4426C188.094 23.7463 187.717 24.155 187.452 24.6342C187.171 25.1664 187.032 25.7622 187.048 26.3639C187.027 27.1596 187.289 27.9369 187.788 28.5576C188.399 29.2458 189.17 29.7735 190.033 30.0942C190.427 30.2567 190.794 30.4158 191.135 30.5714C191.442 30.7081 191.737 30.8703 192.018 31.0561C192.244 31.2032 192.442 31.3888 192.605 31.6045C192.747 31.8001 192.823 32.0365 192.82 32.2786C192.821 32.4599 192.775 32.6384 192.685 32.7961C192.585 32.9655 192.445 33.1075 192.277 33.2095C192.067 33.3377 191.837 33.4302 191.597 33.4833C191.284 33.5533 190.963 33.5863 190.642 33.5817C190.013 33.5805 189.388 33.4695 188.796 33.2536C188.178 33.0306 187.605 32.6988 187.104 32.2739ZM182.272 25.1133H186.022V22.7442H175.566V25.1133H179.3V35.6639H182.272V25.1133Z" fill="#787878"/>
<defs>
<clipPath id="clip0_73_233">
<rect width="30" height="30" fill="white" transform="translate(250 10)"/>
</clipPath>
<clipPath id="clip1_73_233">
<rect width="30" height="30" fill="white" transform="translate(330 10)"/>
</clipPath>
</defs>
</svg>
