<svg width="80" height="80" viewBox="0 0 80 80" fill="none" xmlns="http://www.w3.org/2000/svg">
<rect width="80" height="80" rx="10" fill="#535353"/>
<g clip-path="url(#clip0_80_911)">
<path fill-rule="evenodd" clip-rule="evenodd" d="M40 15C53.8075 15 65 26.4748 65 40.6323C65 51.9548 57.845 61.5599 47.9175 64.9524C46.65 65.2049 46.2 64.4044 46.2 63.7219C46.2 62.8769 46.23 60.117 46.23 56.687C46.23 54.297 45.43 52.7371 44.5325 51.9421C50.1 51.3071 55.95 49.1394 55.95 39.2944C55.95 36.4944 54.98 34.2096 53.375 32.4146C53.635 31.7671 54.4925 29.1599 53.13 25.6299C53.13 25.6299 51.035 24.9431 46.2625 28.2581C44.265 27.6906 42.125 27.405 40 27.395C37.875 27.405 35.7375 27.6906 33.7425 28.2581C28.965 24.9431 26.865 25.6299 26.865 25.6299C25.5075 29.1599 26.365 31.7671 26.6225 32.4146C25.025 34.2096 24.0475 36.4944 24.0475 39.2944C24.0475 49.1144 29.885 51.3154 35.4375 51.9629C34.7225 52.6029 34.075 53.7319 33.85 55.3894C32.425 56.0444 28.805 57.178 26.575 53.2605C26.575 53.2605 25.2525 50.7977 22.7425 50.6177C22.7425 50.6177 20.305 50.5853 22.5725 52.1753C22.5725 52.1753 24.21 52.9628 25.3475 55.9253C25.3475 55.9253 26.815 60.5002 33.77 58.9502C33.7825 61.0927 33.805 63.1119 33.805 63.7219C33.805 64.3994 33.345 65.1923 32.0975 64.9548C22.1625 61.5673 15 51.9573 15 40.6323C15 26.4748 26.195 15 40 15Z" fill="white"/>
</g>
<defs>
<clipPath id="clip0_80_911">
<rect width="50" height="50" fill="white" transform="translate(15 15)"/>
</clipPath>
</defs>
</svg>
