<svg width="60" height="60" viewBox="0 0 60 60" fill="none" xmlns="http://www.w3.org/2000/svg">
<path d="M3.59961 0.0585938L8.40477 53.9554L29.968 59.9411L51.5908 53.9469L56.4013 0.0585938H3.59961ZM46.3779 12.849L46.077 16.2001L45.9448 17.6862H45.9229H30.0004H29.9773H20.6493L21.2534 24.455H29.9773H30.0004H43.5617H45.3431L45.1817 26.23L43.6284 43.633L43.5289 44.749L30.0004 48.4984V48.4998L29.9701 48.5082L16.4294 44.7491L15.5033 34.3703H18.5616H22.1389L22.6095 39.6421L29.9713 41.6302L29.9773 41.6285V41.6278L37.3503 39.6383L38.117 31.0651H30.0004H29.9773H15.208L13.5834 12.849L13.4251 11.0759H29.9775H30.0004H46.5361L46.3779 12.849Z" fill="white"/>
</svg>
