<svg width="60" height="60" viewBox="0 0 60 60" fill="none" xmlns="http://www.w3.org/2000/svg">
<g clip-path="url(#clip0_12_75)">
<path fill-rule="evenodd" clip-rule="evenodd" d="M45.984 55.2964C40.749 55.2964 37.365 52.8006 35.715 49.5366L40.305 46.8779C41.514 48.8519 43.083 50.3013 45.864 50.3013C48.198 50.3013 49.689 49.1335 49.689 47.5225C49.689 45.0985 46.455 44.1513 44.172 43.1733C40.104 41.4423 37.404 39.2673 37.404 34.6743C37.404 30.4473 40.626 27.2256 45.663 27.2256C49.245 27.2256 51.825 28.4734 53.676 31.7344L49.287 34.5542C48.321 32.8232 47.274 32.1387 45.663 32.1387C44.01 32.1387 42.963 33.1862 42.963 34.5542C42.963 36.2462 44.01 36.9305 46.428 37.9775C51.495 40.1495 55.329 41.8559 55.329 47.4419C55.329 52.5179 51.342 55.2964 45.984 55.2964ZM33 46.7974C33 52.6384 29.403 55.7256 24.408 55.7256C19.896 55.7256 17.193 54 15.864 51H15.819H15.798H15.786L20.373 47.7935C21.258 49.3625 22.056 50.4756 23.988 50.4756C25.842 50.4756 27 49.5367 27 46.7197V27H33V46.7974ZM0 60H60V0H0V60Z" fill="white"/>
</g>
<defs>
<clipPath id="clip0_12_75">
<rect width="60" height="60" fill="white"/>
</clipPath>
</defs>
</svg>
