<svg width="60" height="60" viewBox="0 0 60 60" fill="none" xmlns="http://www.w3.org/2000/svg">
<g clip-path="url(#clip0_12_89)">
<path d="M52.51 0H52.61C54.645 0 56.485 0.8425 57.7975 2.2L57.8 2.2025C59.1575 3.5175 60 5.355 60 7.3925V7.51V7.505V52.51V52.61C60 54.645 59.1575 56.485 57.8 57.7975L57.7975 57.8C56.4825 59.1575 54.645 60 52.6075 60C52.5725 60 52.5375 60 52.5 60H52.505H7.5C7.4675 60 7.4275 60 7.39 60C5.355 60 3.515 59.1575 2.2025 57.8L2.2 57.7975C0.8425 56.4825 0 54.645 0 52.6075C0 52.5725 0 52.5375 0 52.5V52.505V7.5C0 7.47 0 7.435 0 7.4C0 5.365 0.8425 3.525 2.2 2.2125L2.2025 2.21C3.5175 0.8525 5.355 0.01 7.3925 0.01H7.5H7.495L52.51 0ZM26.1225 45.405V11.375C26.1225 11.365 26.1225 11.3525 26.1225 11.3425C26.1225 10.355 25.7125 9.465 25.0525 8.8325C24.42 8.18 23.535 7.775 22.5575 7.775C22.54 7.775 22.5225 7.775 22.5075 7.775H11.3925C11.3825 7.775 11.37 7.775 11.36 7.775C10.3725 7.775 9.4825 8.185 8.85 8.845C8.19 9.48 7.7775 10.37 7.7775 11.355V11.3725V45.4025C7.775 45.44 7.775 45.4825 7.775 45.5275C7.775 46.5075 8.1875 47.39 8.8475 48.0125L8.85 48.015C9.495 48.635 10.3725 49.015 11.34 49.015H11.3975H22.5125H22.565C23.5325 49.015 24.41 48.6325 25.0575 48.0125C25.72 47.3875 26.1325 46.505 26.1325 45.525C26.1325 45.48 26.1325 45.4375 26.13 45.395V45.4025L26.1225 45.405ZM52.2425 30.405V11.3775C52.2425 11.3675 52.2425 11.355 52.2425 11.345C52.2425 10.3575 51.8325 9.4675 51.1725 8.835C50.5375 8.1725 49.6475 7.7625 48.6625 7.7625C48.65 7.7625 48.64 7.7625 48.6275 7.7625H37.5125C37.5025 7.7625 37.49 7.7625 37.48 7.7625C36.4925 7.7625 35.6025 8.1725 34.97 8.8325C34.3075 9.4675 33.8975 10.3575 33.8975 11.3425V11.3775V30.395C33.895 30.4325 33.895 30.475 33.895 30.52C33.895 31.5 34.3075 32.3825 34.9675 33.005L34.97 33.0075C35.615 33.6275 36.4925 34.0075 37.46 34.0075H37.5175H48.6325H48.685C49.6525 34.0075 50.53 33.625 51.1775 33.005C51.84 32.38 52.2525 31.4975 52.2525 30.5175C52.2525 30.4775 52.2525 30.4375 52.25 30.3975V30.4025L52.2425 30.405Z" fill="white"/>
</g>
<defs>
<clipPath id="clip0_12_89">
<rect width="60" height="60" fill="white"/>
</clipPath>
</defs>
</svg>
