<svg width="60" height="60" viewBox="0 0 60 60" fill="none" xmlns="http://www.w3.org/2000/svg">
<path d="M53.79 3.75H6.21C4.85138 3.75 3.75 4.85138 3.75 6.21V53.79C3.75 55.1486 4.85138 56.25 6.21 56.25H53.79C55.1486 56.25 56.25 55.1486 56.25 53.79V6.21C56.25 4.85138 55.1486 3.75 53.79 3.75Z" fill="white"/>
<path fill-rule="evenodd" clip-rule="evenodd" d="M34.2084 44.548V50.3005C35.2536 50.8164 36.3675 51.1795 37.5159 51.3786C38.8431 51.6236 40.1902 51.7442 41.5397 51.7386C42.855 51.7449 44.1672 51.6123 45.4547 51.343C46.6106 51.1094 47.7135 50.6645 48.7078 50.0305C49.6309 49.4346 50.3918 48.619 50.9222 47.6568C51.8721 45.6642 51.9974 43.3774 51.2709 41.293C50.9644 40.5135 50.5076 39.8019 49.9266 39.1986C49.3029 38.5571 48.5945 38.0039 47.8209 37.5543C46.9304 37.0327 46.0051 36.5728 45.0516 36.178C44.3016 35.8668 43.6266 35.5643 43.0266 35.2705C42.4936 35.0154 41.9836 34.7149 41.5022 34.3724C41.1251 34.108 40.7976 33.7792 40.5347 33.4011C40.3076 33.0578 40.1893 32.654 40.1953 32.2424C40.1903 31.8636 40.2959 31.4915 40.4991 31.1718C40.7198 30.8371 41.0142 30.5575 41.3597 30.3543C41.7821 30.1056 42.2417 29.9264 42.7209 29.8236C43.3093 29.6929 43.9107 29.63 44.5134 29.6361C45.0203 29.6379 45.5265 29.6742 46.0284 29.7449C46.5705 29.8182 47.1068 29.9291 47.6334 30.0768C48.1691 30.2252 48.6931 30.4132 49.2009 30.6393C49.6938 30.8589 50.1651 31.1238 50.6091 31.4305V26.0624C49.6849 25.7127 48.7265 25.4614 47.7497 25.3124C46.5701 25.1407 45.3791 25.0599 44.1872 25.0705C42.8843 25.0635 41.5852 25.2114 40.3172 25.5111C39.1711 25.773 38.0813 26.2385 37.0997 26.8855C36.1878 27.4929 35.4349 28.3102 34.9041 29.2686C34.3415 30.333 34.0632 31.5246 34.0959 32.728C34.0544 34.3195 34.5786 35.8741 35.5753 37.1155C36.7982 38.4919 38.3401 39.5472 40.0659 40.1886C40.8534 40.5136 41.5878 40.8318 42.2691 41.143C42.8837 41.4165 43.4745 41.7407 44.0353 42.1124C44.4876 42.4066 44.8849 42.7779 45.2091 43.2093C45.4941 43.6005 45.6453 44.0733 45.6403 44.5574C45.6429 44.9201 45.5498 45.2771 45.3703 45.5924C45.1709 45.9311 44.8907 46.2152 44.5547 46.4193C44.1342 46.6756 43.6743 46.8606 43.1934 46.9668C42.5671 47.1068 41.9264 47.1729 41.2847 47.1636C40.0253 47.1613 38.7759 46.9392 37.5928 46.5074C36.3568 46.0614 35.2107 45.3978 34.2084 44.548ZM24.5447 30.2268H32.0447V25.4886H11.1328V30.2268H18.5991V51.328H24.5447V30.2268Z" fill="#535353"/>
</svg>
