<svg width="60" height="60" viewBox="0 0 60 60" fill="none" xmlns="http://www.w3.org/2000/svg">
<g clip-path="url(#clip0_12_87)">
<path d="M57.8717 6.465L45.5286 0.526877C44.0923 -0.166873 42.3842 0.125627 41.2611 1.24875L17.6192 22.8206L7.3161 15.0075C6.35985 14.2744 5.01172 14.3344 4.12297 15.1444L0.822972 18.1519C-0.270152 19.1381 -0.270152 20.8575 0.813597 21.8438L9.74985 29.9981L0.813597 38.1525C-0.270152 39.1388 -0.270152 40.8581 0.822972 41.8444L4.12297 44.8519C5.0211 45.6619 6.35985 45.7219 7.3161 44.9888L17.6192 37.1663L41.2723 58.7475C42.3861 59.8706 44.0942 60.1631 45.5305 59.4694L57.8848 53.5219C59.1842 52.8975 60.0036 51.5887 60.0036 50.1431V9.84C60.0036 8.40375 59.173 7.08563 57.8755 6.46125L57.8717 6.465ZM45.0092 43.6238L27.0598 30L45.0092 16.3763V43.6238Z" fill="white"/>
</g>
<defs>
<clipPath id="clip0_12_87">
<rect width="60" height="60" fill="white"/>
</clipPath>
</defs>
</svg>
